<svg width="40" height="40" viewBox="0 0 40 40" fill="none" xmlns="http://www.w3.org/2000/svg">
<g clip-path="url(#clip0_1_1019)">
<g filter="url(#filter0_d_1_1019)">
<path d="M13.905 26.0899H25.0016C31.8576 26.0899 32.9003 21.7829 34.1649 15.501C34.5297 13.6891 34.7121 12.7832 34.2735 12.1796C33.8348 11.576 32.9941 11.576 31.3126 11.576H10.8495" stroke="#FAF8F2" stroke-width="1.83333" stroke-linecap="round"/>
<path d="M13.905 26.0899L9.90026 7.01549C9.5602 5.65526 8.33803 4.70102 6.93594 4.70102H5.5022" stroke="#FAF8F2" stroke-width="1.83333" stroke-linecap="round"/>
<path d="M15.2495 26.0899H14.6209C12.538 26.0899 10.8495 27.8488 10.8495 30.0185C10.8495 30.3801 11.1309 30.6732 11.4781 30.6732H28.4189" stroke="#FAF8F2" stroke-width="1.83333" stroke-linecap="round" stroke-linejoin="round"/>
<ellipse cx="17.7244" cy="32.9649" rx="2.29167" ry="2.29167" stroke="#FAF8F2" stroke-width="1.83333"/>
<ellipse cx="28.4189" cy="32.9649" rx="2.29167" ry="2.29167" stroke="#FAF8F2" stroke-width="1.83333"/>
</g>
</g>
<defs>
<filter id="filter0_d_1_1019" x="-5.41443" y="-4.21564" width="50.8611" height="52.3889" filterUnits="userSpaceOnUse" color-interpolation-filters="sRGB">
<feFlood flood-opacity="0" result="BackgroundImageFix"/>
<feColorMatrix in="SourceAlpha" type="matrix" values="0 0 0 0 0 0 0 0 0 0 0 0 0 0 0 0 0 0 127 0" result="hardAlpha"/>
<feOffset dy="2"/>
<feGaussianBlur stdDeviation="5"/>
<feComposite in2="hardAlpha" operator="out"/>
<feColorMatrix type="matrix" values="0 0 0 0 0 0 0 0 0 0 0 0 0 0 0 0 0 0 0.25 0"/>
<feBlend mode="normal" in2="BackgroundImageFix" result="effect1_dropShadow_1_1019"/>
<feBlend mode="normal" in="SourceGraphic" in2="effect1_dropShadow_1_1019" result="shape"/>
</filter>
<clipPath id="clip0_1_1019">
<rect width="36.6667" height="36.6667" fill="white" transform="translate(1.66406 1.66406)"/>
</clipPath>
</defs>
</svg>
