<svg width="24" height="24" viewBox="0 0 24 24" fill="none" xmlns="http://www.w3.org/2000/svg">
<path fill-rule="evenodd" clip-rule="evenodd" d="M2.20451 7.70267C2.64385 7.26333 3.35616 7.26333 3.7955 7.70267L11.7348 15.642C11.8399 15.7471 11.9251 15.8322 12 15.9047C12.0749 15.8322 12.1601 15.7471 12.2652 15.642L20.2045 7.70267C20.6438 7.26333 21.3562 7.26333 21.7955 7.70267C22.2348 8.14201 22.2348 8.85432 21.7955 9.29366L13.8562 17.233C13.844 17.2451 13.8319 17.2573 13.8196 17.2695C13.6022 17.4872 13.367 17.7225 13.1417 17.8944C12.8778 18.0958 12.5002 18.3125 12 18.3125C11.4998 18.3125 11.1222 18.0958 10.8583 17.8944C10.633 17.7225 10.3978 17.4872 10.1804 17.2695C10.1681 17.2573 10.156 17.2451 10.1438 17.233L2.20451 9.29366C1.76517 8.85432 1.76517 8.14201 2.20451 7.70267Z" fill="#FAF8F2"/>
</svg>
