<svg width="16" height="16" viewBox="0 0 16 16" fill="none" xmlns="http://www.w3.org/2000/svg">
<path d="M1.33331 4L5.942 6.61131C7.64104 7.57401 8.35892 7.57401 10.058 6.61131L14.6666 4" stroke="white" stroke-linejoin="round"/>
<path d="M1.34382 8.98391C1.38741 11.0276 1.4092 12.0494 2.16328 12.8064C2.91737 13.5634 3.96687 13.5897 6.06587 13.6425C7.35952 13.675 8.64044 13.675 9.9341 13.6425C12.0331 13.5897 13.0826 13.5634 13.8367 12.8064C14.5908 12.0494 14.6126 11.0276 14.6561 8.98391C14.6702 8.32679 14.6702 7.67355 14.6561 7.01643C14.6126 4.97274 14.5908 3.95089 13.8367 3.19394C13.0826 2.43698 12.0331 2.41061 9.9341 2.35788C8.64044 2.32537 7.35952 2.32537 6.06586 2.35787C3.96687 2.41061 2.91737 2.43697 2.16328 3.19393C1.4092 3.95088 1.3874 4.97273 1.34382 7.01642C1.32981 7.67354 1.32981 8.32679 1.34382 8.98391Z" stroke="white" stroke-linejoin="round"/>
</svg>
